<svg enable-background="new 0 0 512 512" viewBox="0 0 512 512" xmlns="http://www.w3.org/2000/svg"><g id="_x31_0_Mobile_app_development"><g><path d="m467.886 156.516c-9.982-2.289-17.286-11.005-17.774-21.182-.487-10.226 5.989-19.575 15.68-22.79 2.532-.828 3.896-3.555 3.117-6.087-2.873-9.057-6.964-17.725-12.174-25.808-1.461-2.24-4.432-2.873-6.672-1.461-8.668 5.405-19.965 4.431-27.512-2.435-7.548-6.866-9.593-18.066-5.016-27.172 1.169-2.386.244-5.308-2.143-6.525-8.473-4.383-17.53-7.645-26.782-9.642-2.629-.584-5.21 1.071-5.795 3.652-2.289 9.983-11.005 17.238-21.182 17.725-3.36.195-6.574-.438-9.593-1.655v-19.672c0-14.219-11.541-25.808-25.809-25.808h-260.079c-14.268 0-25.808 11.589-25.808 25.808v445.072c0 14.219 11.54 25.808 25.808 25.808h260.08c14.267 0 25.809-11.589 25.809-25.808v-244.936c3.992-5.698 10.42-9.447 17.627-9.788 10.08-.487 19.527 5.941 22.741 15.631.828 2.532 3.555 3.896 6.087 3.117 9.057-2.873 17.725-6.963 25.759-12.174 2.24-1.412 2.922-4.382 1.51-6.671-5.405-8.619-4.431-19.965 2.435-27.512 6.866-7.499 18.017-9.593 27.172-5.016 2.386 1.169 5.259.243 6.476-2.094 4.431-8.522 7.694-17.53 9.69-26.831.584-2.581-1.072-5.161-3.652-5.746zm-402.562 150.565c0 2.678-2.191 4.869-4.869 4.869s-4.869-2.191-4.869-4.869v-80.639c0-2.678 2.191-4.869 4.869-4.869s4.869 2.191 4.869 4.869zm0-125.584c0 2.678-2.191 4.869-4.869 4.869s-4.869-2.191-4.869-4.869v-24.688c0-2.678 2.191-4.869 4.869-4.869s4.869 2.191 4.869 4.869zm0-55.513c0 2.678-2.191 4.869-4.869 4.869s-4.869-2.191-4.869-4.869v-24.688c0-2.678 2.191-4.869 4.869-4.869s4.869 2.191 4.869 4.869zm276.978 352.552c0 8.863-7.207 16.069-16.07 16.069h-228.574c-8.862 0-16.069-7.207-16.069-16.069v-445.072c0-8.863 7.207-16.069 16.069-16.069h228.575c8.862 0 16.07 7.207 16.07 16.069v12.271c-1.461-1.948-2.63-4.188-3.458-6.574-.828-2.532-3.507-3.896-6.087-3.117-9.008 2.873-17.725 6.963-25.759 12.174-.049 0-.049.049-.097.097h-190.058c-10.761 0-19.478 8.717-19.478 19.478v376.412c0 10.761 8.717 19.478 19.478 19.478h190.251c10.713 0 19.478-8.717 19.478-19.478v-203.885c5.113 1.996 10.372 3.603 15.729 4.821zm-78.886-356.398c9.933 2.24 17.238 10.956 17.725 21.182.487 10.177-5.941 19.527-15.631 22.741-2.532.876-3.945 3.555-3.117 6.135 2.873 9.009 6.964 17.676 12.125 25.76 1.461 2.24 4.432 2.873 6.672 1.461 8.668-5.405 19.965-4.383 27.561 2.483 7.499 6.866 9.593 18.017 5.016 27.123-1.217 2.386-.244 5.308 2.094 6.525.341.146.634.292.974.438v208.22c0 5.356-4.383 9.739-9.739 9.739h-190.252c-5.357 0-9.739-4.383-9.739-9.739v-376.412c0-5.356 4.382-9.739 9.739-9.739h190.3c3.458 8.132 1.948 17.676-4.09 24.347-6.866 7.548-18.017 9.593-27.123 5.016-2.386-1.169-5.308-.243-6.525 2.143-4.431 8.473-7.645 17.53-9.69 26.782-.537 2.629 1.119 5.161 3.7 5.795zm191.761 58.482c-12.028-3.896-25.516-.487-34.184 9.057s-10.761 23.276-5.794 34.865c-4.918 2.873-10.08 5.308-15.437 7.304-5.746-11.249-17.823-18.358-30.581-17.773-12.904.584-24.104 8.814-28.779 20.598-5.502-1.461-10.859-3.409-16.069-5.843 3.895-11.979.487-25.467-9.057-34.135s-23.276-10.81-34.866-5.795c-2.873-4.967-5.356-10.129-7.304-15.485 11.248-5.746 18.358-17.676 17.774-30.58-.633-12.856-8.863-24.104-20.598-28.73 1.46-5.503 3.408-10.908 5.794-16.118 12.028 3.896 25.516.487 34.184-9.057 8.668-9.496 10.81-23.276 5.794-34.865 4.967-2.873 10.129-5.308 15.485-7.304 5.746 11.249 17.725 18.358 30.58 17.773 12.856-.584 24.056-8.814 28.731-20.549 5.502 1.412 10.908 3.36 16.069 5.795-3.846 11.979-.438 25.467 9.106 34.184 9.495 8.619 23.228 10.762 34.866 5.746 2.873 4.967 5.308 10.129 7.256 15.485-11.199 5.746-18.358 17.676-17.725 30.58.292 6.428 2.483 12.466 6.087 17.433 3.603 5.015 8.57 8.96 14.462 11.297-1.461 5.55-3.408 10.907-5.794 16.117z"/><path d="m198.013 38.005h27.89c2.692 0 4.869-2.18 4.869-4.869s-2.178-4.869-4.869-4.869h-27.89c-2.692 0-4.869 2.18-4.869 4.869s2.178 4.869 4.869 4.869z"/><path d="m149.789 145.826c1.902 1.902 4.984 1.902 6.886 0s1.902-4.984 0-6.886l-17.723-17.723 18.46-18.46c1.902-1.902 1.902-4.984 0-6.886s-4.984-1.902-6.886 0l-21.903 21.903c-1.902 1.902-1.902 4.984 0 6.886z"/><path d="m217.073 121.217-17.723 17.723c-1.902 1.902-1.902 4.984 0 6.886s4.984 1.902 6.886 0l21.166-21.166c.913-.913 1.427-2.152 1.427-3.443s-.514-2.53-1.427-3.443l-21.908-21.903c-1.902-1.902-4.984-1.902-6.886 0s-1.902 4.986 0 6.886z"/><path d="m170.256 163.723c2.589.488 5.171-1.246 5.659-3.923l13.781-76.167c.476-2.646-1.279-5.181-3.928-5.659-2.639-.495-5.179 1.282-5.659 3.923l-13.781 76.167c-.475 2.646 1.28 5.181 3.928 5.659z"/><path d="m225.288 188.606h-93.203c-2.727 0-4.869 2.142-4.869 4.869v26.295c0 2.678 2.143 4.87 4.869 4.87h93.203c2.678 0 4.869-2.191 4.869-4.87v-26.295c0-2.726-2.191-4.869-4.869-4.869zm-4.87 26.295h-83.464v-16.556h83.464z"/><path d="m254.505 398.043h-122.42c-2.727 0-4.869 2.143-4.869 4.869v26.295c0 2.678 2.143 4.87 4.869 4.87h122.42c2.678 0 4.87-2.191 4.87-4.87v-26.295c-.001-2.726-2.192-4.869-4.87-4.869zm-4.87 26.296h-112.68v-16.556h112.681v16.556z"/><path d="m182.874 245.823v26.295c0 2.678-2.191 4.87-4.869 4.87h-45.92c-2.727 0-4.869-2.191-4.869-4.87v-26.295c0-2.678 2.143-4.87 4.869-4.87h45.92c2.678 0 4.869 2.191 4.869 4.87z"/><path d="m296.577 240.953h-97.292c-2.727 0-4.869 2.191-4.869 4.87v26.295c0 2.678 2.142 4.87 4.869 4.87h97.292c2.678 0 4.87-2.191 4.87-4.87v-26.295c-.001-2.679-2.192-4.87-4.87-4.87zm-4.87 26.296h-87.553v-16.556h87.553z"/><path d="m182.874 350.517v26.295c0 2.727-2.191 4.87-4.869 4.87h-45.92c-2.727 0-4.869-2.143-4.869-4.87v-26.295c0-2.678 2.143-4.87 4.869-4.87h45.92c2.678.001 4.869 2.192 4.869 4.87z"/><path d="m296.577 345.648h-97.292c-2.727 0-4.869 2.191-4.869 4.87v26.295c0 2.727 2.142 4.87 4.869 4.87h97.292c2.678 0 4.87-2.143 4.87-4.87v-26.295c-.001-2.679-2.192-4.87-4.87-4.87zm-4.87 26.295h-87.553v-16.556h87.553z"/><path d="m182.923 293.301h-50.838c-2.727 0-4.869 2.191-4.869 4.87v26.295c0 2.678 2.143 4.87 4.869 4.87h50.838c2.678 0 4.869-2.191 4.869-4.87v-26.296c0-2.678-2.191-4.869-4.869-4.869zm-4.87 26.295h-41.099v-16.556h41.099z"/><path d="m259.374 298.17v26.295c0 2.678-2.192 4.87-4.87 4.87h-50.838c-2.727 0-4.87-2.191-4.87-4.87v-26.295c0-2.678 2.143-4.87 4.87-4.87h50.838c2.679.001 4.87 2.192 4.87 4.87z"/><path d="m363.386 91.752c-26.295 1.266-46.552 23.519-45.286 49.815 1.217 25.808 22.546 45.335 47.478 45.335 27.22 0 48.889-22.74 47.624-49.864-1.266-26.198-23.471-46.503-49.816-45.286zm-21.084 77.328c-9.155-7.207-13.976-17.384-14.463-28-.584-11.979 4.431-23.666 14.463-31.555zm25.126 8.034c-5.356.243-10.518-.633-15.387-2.483v-70.656c3.749-1.412 7.693-2.289 11.784-2.483 20.5-1.023 38.615 14.803 39.638 36.034.973 20.841-15.193 38.614-36.035 39.588z"/></g></g><g id="Layer_1"/></svg>