<svg id="Layer_1" data-name="Layer 1" xmlns="http://www.w3.org/2000/svg" viewBox="0 0 30 30"><path d="M27.27,8.75v12.5A3.26,3.26,0,0,1,25.64,23c-1.6.88-3.17,1.83-4.75,2.73-1.81,1-3.62,2-5.43,3h-.92c-.28-.13-.56-.24-.82-.39C10.6,26.59,7.51,24.78,4.38,23a3.16,3.16,0,0,1-1.65-1.88V8.87A3.14,3.14,0,0,1,4.38,7c1.41-.75,2.76-1.59,4.15-2.37,2-1.14,4-2.25,6-3.38h.92c.36.18.73.33,1.08.53,3,1.71,5.95,3.45,9,5.14A3.68,3.68,0,0,1,27.27,8.75Zm-5.22,2.19a8.15,8.15,0,1,0-8.22,12.14A7.78,7.78,0,0,0,22,19l-3.24-1.87-.2-.09c-2.1,2.31-4.44,2.64-6.33.91a4.06,4.06,0,0,1-.18-5.8,3.88,3.88,0,0,1,2.71-1.25,4.13,4.13,0,0,1,3.79,2ZM20.17,13.7l-.62.09,0,.56.47.11c.17.62,0,.95-.64.91v.56l.52.11-.07,1.08.66,0L20.68,16h.69l-.05,1.07H22L22.11,16l.62-.11v-.56l-.56-.09.12-.84.62-.07v-.6l-.54-.07v-1l-.6,0-.14,1H20.9l.08-1h-.65Z"/><path d="M20.81,14.44h.75l-.09.85h-.66Z"/></svg>