<svg id="Layer_1" data-name="Layer 1" xmlns="http://www.w3.org/2000/svg" viewBox="0 0 30 30"><path d="M21.44,15a6.43,6.43,0,1,1-6.38-6.43A6.45,6.45,0,0,1,21.44,15Zm-1-.63-1-2.5-2,.86.12,1.64Zm-9.82,3.7c2.14-.89,2.14-.89,1.78-2.48H9.62Zm8.86,0,.94-2.49H17.58l-.11,1.62ZM9.61,14.46h1.57c1.4,0,1.43,0,1.34-1.4a.58.58,0,0,0-.27-.41c-.5-.25-1-.45-1.67-.72Zm4-.08H16.5L16.4,13H13.67Zm2.93,1.26h-3L13.7,17h2.69Zm-.21-3.75c-.33-.73-.55-1.33-.86-1.87a.75.75,0,0,0-.67-.13,3.19,3.19,0,0,0-.79,2Zm-2.49,6.24c.33.71.57,1.34.89,1.92.21.38.55.31.74-.05.3-.57.53-1.17.84-1.87Zm3.5.24-.55,1.76,1.92-1.19Zm-5.9.59L13.14,20l.1-.14-.48-1.5Zm5.32-9.08.56,1.75,1.37-.58Zm-3.94,1.75.55-1.75-1.93,1.17Z"/><path d="M15,7.21a2.9,2.9,0,0,1-.59,0C13.92,7.09,13,7,13,6.81a5.69,5.69,0,0,1,.27-2c.1-.34.38-.5.81-.27a2.14,2.14,0,0,0,2,0c.17-.08.58,0,.6.07a17.27,17.27,0,0,1,.52,2.15c0,.08-.3.3-.49.33-.54.1-1.1.14-1.66.2Z"/><path d="M23.34,12.81c.58.08,1,.1,1.36.19.8.18.89.48.72,1.26a3,3,0,0,0,.07,1.63c.18.5.06.79-.34.92a8.44,8.44,0,0,1-1.79.34c-.12,0-.4-.26-.4-.41,0-1.14-.05-2.28,0-3.42C23,13.11,23.25,12.92,23.34,12.81Z"/><path d="M12.75,23.39c.16-.13.36-.43.58-.44,1.09-.05,2.19,0,3.28,0,.19,0,.52.27.51.39a9.48,9.48,0,0,1-.37,1.85c-.12.39-.41.44-.87.3a3,3,0,0,0-1.75,0c-.64.23-.89,0-1.05-.48A15.5,15.5,0,0,1,12.75,23.39Z"/><path d="M7.26,15c-.06.55-.12,1.08-.18,1.62s-.32.67-.8.55-.73-.1-1.08-.2c-.77-.21-.81-.44-.63-1.19a5.44,5.44,0,0,0,0-1.56c0-.16-.21-.42-.17-.46.32-.28.67-.71,1-.73.53,0,1.31-.67,1.62.31A10,10,0,0,1,7.26,15Z"/><path d="M21.58,23.5c-1,.18-1.57-.54-2.19-1.05-.1-.08-.07-.5.05-.63.76-.81,1.55-1.6,2.36-2.36.12-.11.51-.16.57-.08a13.33,13.33,0,0,1,1.12,1.75c.06.1-.17.51-.33.56A2.39,2.39,0,0,0,21.58,23.5Z"/><path d="M23.5,8.42c.17,1.05-.55,1.61-1.1,2.23-.07.09-.45,0-.58-.08C21,9.8,20.22,9,19.47,8.2a.85.85,0,0,1,.12-.77,3.41,3.41,0,0,1,.91-.72c.66-.42,1-.3,1.3.39A2.38,2.38,0,0,0,23.5,8.42Z"/><path d="M8.39,23.48A2.33,2.33,0,0,0,6.5,21.59c-.19-1,.55-1.6,1.08-2.23.07-.09.5,0,.63.1.8.74,1.56,1.52,2.32,2.3.3.32.21.62-.13.86C9.8,23,9.3,23.69,8.39,23.48Z"/><path d="M6.51,8.4a2.33,2.33,0,0,0,1.9-1.89c1-.22,1.58.53,2.22,1a.52.52,0,0,1,0,.51c-.83.87-1.69,1.72-2.57,2.56a.48.48,0,0,1-.45,0C7.07,10,6.35,9.43,6.51,8.4Z"/><path d="M7.59,6.11a1.44,1.44,0,1,1-1.47-1.4A1.42,1.42,0,0,1,7.59,6.11Z"/><path d="M7.55,23.86a1.42,1.42,0,1,1-2.84-.06,1.42,1.42,0,1,1,2.84.06Z"/><path d="M23.87,25.29a1.44,1.44,0,0,1-1.47-1.42,1.44,1.44,0,1,1,1.47,1.42Z"/><path d="M16.47,2.48a1.44,1.44,0,0,1-2.88,0,1.44,1.44,0,1,1,2.88,0Z"/><path d="M25.29,6.17a1.43,1.43,0,0,1-1.46,1.42,1.44,1.44,0,1,1,1.46-1.42Z"/><path d="M2.48,13.53a1.44,1.44,0,1,1,0,2.88,1.44,1.44,0,0,1,0-2.88Z"/><path d="M27.43,16.46A1.44,1.44,0,1,1,29,15.09,1.45,1.45,0,0,1,27.43,16.46Z"/><path d="M16.41,27.53A1.44,1.44,0,1,1,15,26.07,1.46,1.46,0,0,1,16.41,27.53Z"/></svg>