<svg id="Layer_1" data-name="Layer 1" xmlns="http://www.w3.org/2000/svg" viewBox="0 0 30 30"><path d="M11.34,7.32c-3.52-.64-6.3,0-7.41,1.95-.83,1.44-.59,3.34.57,5.37a.36.36,0,0,0,.49.13H5a.35.35,0,0,0,.14-.49c-1-1.83-1.26-3.47-.58-4.65C5.47,8,8,7.44,11.21,8a.37.37,0,0,0,.43-.28.38.38,0,0,0,0-.15.36.36,0,0,0-.3-.28Zm-5,9.79a23.07,23.07,0,0,0,5.38,4.25c5.11,2.95,10.55,3.74,13.23,1.91a.37.37,0,0,0,.08-.51.37.37,0,0,0-.49-.09c-2.4,1.64-7.56.89-12.45-1.94a21.68,21.68,0,0,1-5.21-4.11.37.37,0,0,0-.4-.1.36.36,0,0,0-.21.46.33.33,0,0,0,.07.13Z"/><path d="M24.08,16.67c2.31-2.72,3.11-5.46,2-7.38-.82-1.41-2.54-2.16-4.83-2.19a.37.37,0,0,0-.15.7.35.35,0,0,0,.14,0c2.06,0,3.54.66,4.21,1.82.92,1.59.2,4-1.93,6.55a.36.36,0,0,0,0,.51h0a.36.36,0,0,0,.51,0ZM18.16,7.44A22.56,22.56,0,0,0,11.73,10C6.45,13,3,17.52,3.49,20.78a.36.36,0,0,0,.4.31.36.36,0,0,0,.32-.4v0C3.78,17.78,7,13.53,12.09,10.62a21.52,21.52,0,0,1,6.22-2.47.37.37,0,0,0,.26-.44.35.35,0,0,0-.41-.27Z"/><path d="M9.62,23c1.2,3.37,3.17,5.44,5.39,5.44,1.62,0,3.12-1.1,4.28-3a.34.34,0,0,0,.05-.28.36.36,0,0,0-.43-.27.27.27,0,0,0-.14.07.36.36,0,0,0-.1.11c-1,1.74-2.33,2.69-3.66,2.69-1.84,0-3.6-1.85-4.71-5a.36.36,0,0,0-.19-.21l-.14,0a.38.38,0,0,0-.38.35h0a.32.32,0,0,0,0,.14Zm11-.66a22.76,22.76,0,0,0,1-6.69c0-6-2.1-11.13-5.08-12.46a.36.36,0,0,0-.47.2.35.35,0,0,0,.18.46c2.66,1.18,4.64,6.08,4.64,11.8a22,22,0,0,1-.92,6.48.34.34,0,0,0,0,.28.36.36,0,0,0,.48.16A.39.39,0,0,0,20.63,22.37Zm6.8-.35A1.73,1.73,0,1,0,24,22v0a1.73,1.73,0,0,0,3.46,0Zm-.73,0a1,1,0,1,1-1-1A1,1,0,0,1,26.7,22ZM4.3,23.75A1.72,1.72,0,0,0,6,22H6A1.73,1.73,0,0,0,4.3,20.29h0A1.74,1.74,0,0,0,2.57,22h0A1.73,1.73,0,0,0,4.3,23.75Zm0-.72a1,1,0,1,1,0-2h0a1,1,0,0,1,1,1A1,1,0,0,1,4.3,23Z"/><path d="M15,5a1.73,1.73,0,0,0,.66-3.33A1.65,1.65,0,0,0,15,1.53a1.73,1.73,0,0,0-1.73,1.73,1.75,1.75,0,0,0,.51,1.22A1.73,1.73,0,0,0,15,5Zm0-.73a1,1,0,0,1-.93-.62,1,1,0,0,1,0-.77,1,1,0,0,1,.55-.54,1,1,0,0,1,1.31.54,1,1,0,0,1-.54,1.32,1,1,0,0,1-.39.07Zm.27,12.65a1.27,1.27,0,0,1-.95-.18,1.25,1.25,0,0,1,.42-2.27,1.25,1.25,0,0,1,.53,2.45Z"/></svg>