<svg id="Layer_1" data-name="Layer 1" xmlns="http://www.w3.org/2000/svg" viewBox="0 0 30 30"><path d="M18.31,17.28a6,6,0,0,1-4.72,3.13,4.86,4.86,0,0,1-5.2-6.73A6.37,6.37,0,0,1,16,9.79a4.29,4.29,0,0,1,2.78,2.71c-.8.22-1.59.47-2.4.64a1,1,0,0,1-.72-.26,2.6,2.6,0,0,0-3.65.25,2.86,2.86,0,0,0-.48,3.75c1.05,1.35,3.1,1.1,4.26-.64H12.63c.36-.79.61-1.41.94-2,.09-.15.45-.2.68-.2,1.2,0,2.4,0,3.6,0a.81.81,0,0,0,.89-.59,6.41,6.41,0,0,1,6.34-3.81,4.82,4.82,0,0,1,4.49,6c-.83,4-6,6.14-9.25,3.81A13.92,13.92,0,0,1,18.31,17.28Zm5.41.48a3.18,3.18,0,0,0,3.09-3.07,2.38,2.38,0,0,0-2.4-2.43,3.17,3.17,0,0,0-3.13,3.12A2.33,2.33,0,0,0,23.72,17.76Z"/><path d="M.31,13.94c.17-.1.34-.29.51-.3,2.12,0,4.25,0,6.45.17-.13.1-.26.28-.39.29H.37Z"/><path d="M2.42,12.65c.18-.1.35-.3.53-.3,1.65,0,3.3,0,5,0l.06.2c-.21.11-.42.3-.64.31-1.6,0-3.2,0-4.8,0Z"/><path d="M3.73,15.23c1-.58,2.1-.12,3.15-.26l.09.21c-.15.1-.29.27-.43.28-.93,0-1.86,0-2.79,0Z"/></svg>