<svg id="Layer_1" data-name="Layer 1" xmlns="http://www.w3.org/2000/svg" viewBox="0 0 30 30"><path d="M25.58,12.65a3.12,3.12,0,0,1-2.15,3.09A3,3,0,0,1,20,14.51a3,3,0,0,1,.2-3.59,1,1,0,0,0,.28-1c-.16-.77-.24-1.56-.42-2.32a1.83,1.83,0,0,0-.49-.84c-1.05-.92-2.13-1.8-3.19-2.69a1.44,1.44,0,1,1,1.8-2.24C19.61,3,21,4.13,22.37,5.33a1.78,1.78,0,0,1,.4.89c.22,1.08.37,2.18.6,3.27a1,1,0,0,0,.46.59A3.05,3.05,0,0,1,25.58,12.65Zm-4.51.27a1.52,1.52,0,0,0,1.5,1.5,1.56,1.56,0,0,0,1.52-1.56,1.51,1.51,0,0,0-1.55-1.46A1.48,1.48,0,0,0,21.07,12.92Z"/><path d="M14.8,4.66a3,3,0,0,1-3.64,3,1,1,0,0,0-.74.17c-.59.43-1.1.94-1.69,1.38a1.94,1.94,0,0,0-.82,1.38c-.17,1.24-.42,2.46-.63,3.69a1.45,1.45,0,1,1-2.82-.52c.3-1.66.57-3.33.89-5a1.65,1.65,0,0,1,.48-.85c.87-.78,1.79-1.5,2.66-2.28A.91.91,0,0,0,8.76,5,3.08,3.08,0,0,1,11.6,1.62,3,3,0,0,1,14.8,4.66Zm-1.46-.07a1.52,1.52,0,0,0-1.5-1.51,1.55,1.55,0,0,0-1.52,1.56A1.51,1.51,0,0,0,11.86,6.1,1.5,1.5,0,0,0,13.34,4.59Z"/><path d="M10.16,14.91a2.92,2.92,0,0,1,2.81,2,1,1,0,0,0,.7.71c.73.23,1.45.5,2.16.79a1.48,1.48,0,0,0,1.15,0c1.31-.51,2.64-1,4-1.44a1.38,1.38,0,0,1,1.83,1.69,1.53,1.53,0,0,1-.76.92c-1.77.72-3.58,1.36-5.37,2A1.1,1.1,0,0,1,16,21.5q-1.62-.55-3.24-1.17a.91.91,0,0,0-1,.1,3,3,0,0,1-3.5-.1,3.05,3.05,0,0,1-1-3.42A3,3,0,0,1,10.16,14.91Zm1.41,3a1.51,1.51,0,1,0-3,0,1.51,1.51,0,0,0,3,0Z"/><path d="M22.59,28.5H21.3V25.74l-.22,0c-.1.33-.21.66-.3,1s-.22.78-.29,1.17-.24.69-.78.67-.65-.23-.73-.66-.28-1.13-.43-1.69a3.27,3.27,0,0,0-.18-.47l-.18,0V28.5H16.86v-.95c0-1.21,0-2.42,0-3.63,0-.37.12-.48.48-.49,1.56-.05,1.55-.06,2,1.46.11.4.23.8.34,1.19l.18,0a16.69,16.69,0,0,0,.52-1.93c.1-.61.37-.77,1-.75,1.29,0,1.29,0,1.29,1.33Z"/><path d="M9,27.31h2.33v1.17H7.42V23.53s.08-.07.11-.07c1.75-.05,1.38-.18,1.41,1.29,0,.76,0,1.53,0,2.29A1.5,1.5,0,0,0,9,27.31Z"/><path d="M13.7,27.31h2.41v1.17h-4v-1c0-1.16,0-2.33,0-3.5,0-.42.11-.57.54-.56,1.23,0,1-.11,1,1C13.71,25.37,13.7,26.29,13.7,27.31Z"/></svg>