<svg id="Layer_1" data-name="Layer 1" xmlns="http://www.w3.org/2000/svg" viewBox="0 0 30 30"><path d="M.57,15.83a.43.43,0,0,0,0-.05,3.23,3.23,0,0,1,2.3-2.9,5.45,5.45,0,0,0,.6-.35,2.48,2.48,0,0,0,2.93,1.11A2.14,2.14,0,0,0,8,12.11a7.3,7.3,0,0,1,5.76-4.93,7.46,7.46,0,0,1,8.55,5.05,2.1,2.1,0,0,0,1.82,1.65,2.24,2.24,0,0,0,2.38-1.09c1.21.72,2.79,1,3,2.83v.63H22.62c-.37.82-.74,1.58-1.05,2.36-.05.12.07.38.19.51,1,1.08,2,2.15,3,3.24l-2.25,2.06L19.31,21a7.87,7.87,0,0,1-4.44,1.25,7.51,7.51,0,0,1-7-5.4A.72.72,0,0,0,7,16.18c-1.94,0-3.89,0-5.83,0-.21,0-.41,0-.62,0Zm14.56-8a6.72,6.72,0,0,0-6.74,6.69,6.77,6.77,0,1,0,13.53.17A6.88,6.88,0,0,0,15.13,7.87Z"/><path d="M2.59,7.54C3.18,7,3.69,6.48,4.26,6a1.82,1.82,0,0,1,2.54.11.88.88,0,0,0,.25.18A2.06,2.06,0,0,1,8,9.63a1,1,0,0,1,0,1.25,3.19,3.19,0,0,0-.86,1.54.87.87,0,0,1-.4.45,2,2,0,0,1-2.2-.18,1.4,1.4,0,0,1-.23-.51,2.17,2.17,0,0,0-.15-.35c-.25-.38-.55-.74-.77-1.15a1.69,1.69,0,0,1-.11-.75c0-.48,0-1,0-1.44A.9.9,0,0,0,2.59,7.54Z"/><path d="M21.71,8a4.63,4.63,0,0,1,2.16-1.69,1.46,1.46,0,0,1,.3-.07c1-.1,1.58.68,2.31,1.1.54.31.6,1,.58,1.64s-.38,1-.28,1.64c.07.43-.48,1-.76,1.46-.06.1-.21.19-.2.28,0,.75-.53.82-1,.9a1.54,1.54,0,0,1-1.58-.55,6.84,6.84,0,0,1-.48-1.14.8.8,0,0,0-.22-.32,1,1,0,0,1-.31-1,7.92,7.92,0,0,0,0-1.54C22.16,8.5,21.9,8.28,21.71,8Z"/><path d="M13.28,15.19l-.46.79c.41.21.78.38,1.12.6s.68.53,1,.78c.81-.37,1.27-1.3,2.35-1.22l-.55-1c.67.22,1.32.4,1.93.67a1.23,1.23,0,0,1,.54.64,7.15,7.15,0,0,1,.4,1.44.76.76,0,0,1-.17.54A5.33,5.33,0,0,1,16,20.16a6.46,6.46,0,0,1-5.32-1.53.81.81,0,0,1-.27-.91c.52-2.14.47-1.7,2.14-2.3Z"/><path d="M15,16.68l-1.4-1.1.34-1.1c-.73-.15-1.45,0-2-.64a1.8,1.8,0,0,0,.71-1.72,9.86,9.86,0,0,1,.08-1.44,2,2,0,0,1,2.82-1.36,1.28,1.28,0,0,0,.43.14,1.41,1.41,0,0,1,1.36,1.38c0,.5,0,1,0,1.5a1.69,1.69,0,0,0,.71,1.57c-.61.51-1.35.42-2.17.55l.49,1.12Z"/></svg>