<svg id="Layer_1" data-name="Layer 1" xmlns="http://www.w3.org/2000/svg" viewBox="0 0 30 30"><defs><style>.cls-1{fill:#010101;}</style></defs><path class="cls-1" d="M14.14,1.8l-.4,0A13.21,13.21,0,0,0,4.25,7.31a12.94,12.94,0,0,0-2.33,5.77A9.72,9.72,0,0,0,1.8,15a9.83,9.83,0,0,0,.12,1.93A13.25,13.25,0,0,0,13.74,28.17a21.19,21.19,0,0,0,2.52,0A13.1,13.1,0,0,0,21,26.78c.23-.11.27-.15.24-.17s-1-1.32-2.15-2.89L17,20.87,14.35,17C12.9,14.8,11.7,13,11.69,13s0,1.74,0,3.87a32,32,0,0,1-.05,3.95.49.49,0,0,1-.23.24c-.08,0-.15,0-.54,0h-.45l-.12-.08a.44.44,0,0,1-.17-.19L10,20.77V10.41l.08-.1a1,1,0,0,1,.19-.16c.1-.05.14-.05.59-.05s.62,0,.75.17,1.47,2.2,3.19,4.8,4.06,6.15,5.21,7.89l2.09,3.17.1-.07A13.79,13.79,0,0,0,25,23.68a13.14,13.14,0,0,0,3.1-6.75A9.83,9.83,0,0,0,28.2,15a9.72,9.72,0,0,0-.12-1.92,13.23,13.23,0,0,0-9-10.67,13.77,13.77,0,0,0-2.75-.57c-.24,0-2-.06-2.16,0Zm5.4,8a.51.51,0,0,1,.26.3c0,.07,0,1.51,0,4.74v4.64L19,18.22,18.18,17V13.59c0-2.18,0-3.41,0-3.47a.49.49,0,0,1,.26-.32c.1-.06.14-.06.55-.06s.45,0,.53,0Z"/><path class="cls-1" d="M14.94,15.63c-.09,0-.12.09,0,0s.15-.1.13-.11Zm-.18.11s0,0,0,0l.06,0s0,0-.07,0Zm-.13.08c-.05,0-.05,0,0,0s.06,0,.06,0,0,0-.07,0Zm-.13.08c-.05,0-.05,0,0,0l.06,0s0,0-.07,0Zm-.2.1c-.09.05-.09.07,0,0l.08,0S14.38,16,14.3,16Z"/></svg>