<svg xmlns="http://www.w3.org/2000/svg" version="1.1" xmlns:xlink="http://www.w3.org/1999/xlink" width="512" height="512" x="0" y="0" viewBox="0 0 24 24" style="enable-background:new 0 0 512 512" xml:space="preserve" class=""><g><path fill="#000" fill-rule="evenodd" d="M11.5 2.134a1 1 0 0 1 1 0l7.794 4.5a1 1 0 0 1 .5.866v9a1 1 0 0 1-.5.866l-7.794 4.5a1 1 0 0 1-1 0l-1.949-1.125a1 1 0 1 1 1-1.732l1.449.836 6.794-3.922V8.077L12 4.155 5.206 8.077v7.882l1.566 1.024.02-.001c.195-.02.44-.058.67-.127.242-.073.398-.158.478-.231.052-.047.06-.068.06-.124V9a1 1 0 1 1 2 0v7.5c0 .695-.305 1.235-.722 1.61-.388.35-.857.545-1.24.66a5.667 5.667 0 0 1-1.388.226 4.452 4.452 0 0 1-.102.003h-.031l-.01.001H6.5L6.5 18v1a1 1 0 0 1-.547-.163l-2.294-1.5a1 1 0 0 1-.453-.837v-9a1 1 0 0 1 .5-.866zm.36 6.66C12.463 8.292 13.337 8 14.5 8s2.038.292 2.64.794c.596.497.86 1.15.86 1.706a1 1 0 1 1-2 0v.016c-.001 0-.016-.082-.14-.185-.147-.123-.523-.331-1.36-.331-.837 0-1.212.208-1.36.33-.118.1-.137.18-.14.186 0 .25.014.276.019.286 0 .002.013.027.067.076.06.052.169.131.361.228.388.193.784.296 1.296.424l.032.008c.483.12 1.073.268 1.672.568a2.765 2.765 0 0 1 1.526 2.078 2.448 2.448 0 0 1 .026.272v.025l.001.01v.008l-1 .001 1-.001c0 .556-.264 1.21-.86 1.707-.603.502-1.477.794-2.64.794s-2.037-.292-2.64-.794c-.596-.497-.86-1.15-.86-1.706a1 1 0 0 1 2 0v-.016c.001 0 .017.082.14.185.147.123.523.331 1.36.331.837 0 1.213-.208 1.36-.33a.423.423 0 0 0 .137-.176l-.001-.006a.768.768 0 0 0-.443-.594c-.388-.193-.784-.296-1.295-.424l-.033-.008c-.482-.12-1.073-.268-1.672-.568-.613-.306-1.067-.686-1.322-1.197-.233-.465-.232-.923-.231-1.161V10.5c0-.556.264-1.21.86-1.706z" clip-rule="evenodd" opacity="1" data-original="#000000" class=""></path></g></svg>