<svg id="Layer_1" data-name="Layer 1" xmlns="http://www.w3.org/2000/svg" viewBox="0 0 30 30"><path d="M28.54,14v2c0,.22-.09.43-.12.64a9.23,9.23,0,0,1-1.1,3.52,2.86,2.86,0,0,1-2.73,1.6c-3-.06-5.93,0-8.89,0H15l.06.73h6.74c0,.85,0,1.63,0,2.4a2,2,0,0,1-.88,1.88A12.09,12.09,0,0,1,18.41,28a17.17,17.17,0,0,1-2.39.5H14l-.64-.12a8,8,0,0,1-4.21-1.6,2.08,2.08,0,0,1-.88-1.63c0-2.19,0-4.38.21-6.55s1.3-3.15,3.5-3.22c1,0,2,0,3.06-.07,1.25,0,2.49-.06,3.72-.19a3.53,3.53,0,0,0,3.33-2.89,7.9,7.9,0,0,0,.2-1.06c.1-1,.16-2,.24-3,.76,0,1.48,0,2.19,0a2.49,2.49,0,0,1,2.38,1.23,5.74,5.74,0,0,1,.73,1.44C28.1,11.91,28.3,13,28.54,14ZM18.74,26.4A1.25,1.25,0,0,0,20,25.13a1.26,1.26,0,1,0-2.51,0A1.24,1.24,0,0,0,18.74,26.4Z"/><path d="M14,1.46h2l.58.12A8,8,0,0,1,20.77,3.1a2.42,2.42,0,0,1,1,2.08c0,.9,0,1.8,0,2.7-.07,1.36-.13,2.72-.33,4.07a2.8,2.8,0,0,1-2.54,2.5,13,13,0,0,1-1.37.14L12,14.71c-2.2.06-3.46.9-4,2.68a7.39,7.39,0,0,0-.28,1.4c-.11,1-.16,1.95-.24,3-.76,0-1.48,0-2.19,0a2.52,2.52,0,0,1-2.38-1.23,5.43,5.43,0,0,1-.73-1.44c-.29-1-.49-2.05-.73-3.08V14c0-.22.09-.43.12-.64A9,9,0,0,1,2.81,9.61,2.75,2.75,0,0,1,5.35,8.22c3,0,6,0,9,0H15L15,7.51H8.24c0-.85,0-1.63,0-2.4a2,2,0,0,1,.88-1.88A12.09,12.09,0,0,1,11.59,2,15.59,15.59,0,0,1,14,1.46ZM11.25,3.6A1.24,1.24,0,0,0,10,4.87a1.26,1.26,0,1,0,2.51,0A1.24,1.24,0,0,0,11.25,3.6Z"/></svg>