<svg xmlns="http://www.w3.org/2000/svg" version="1.1" xmlns:xlink="http://www.w3.org/1999/xlink" width="30" height="30" x="0" y="0" viewBox="0 0 609.649 609.649" style="enable-background:new 0 0 512 512" xml:space="preserve" class=""><g><path d="M199.278 375.168a10.16 10.16 0 0 0 13.29-5.466l14.327-34.394h54.198l14.327 34.394c2.16 5.18 8.111 7.627 13.29 5.467 5.18-2.16 7.627-8.111 5.467-13.29l-50.804-121.93a10.161 10.161 0 0 0-18.756 0l-50.804 121.93a10.16 10.16 0 0 0 5.465 13.289zm54.716-104.89 18.625 44.708h-37.25z" fill="#000000" opacity="1" data-original="#000000" class=""></path><path fill-rule="evenodd" d="M335.281 355.629c-5.612 0-10.161 4.549-10.161 10.161s4.549 10.161 10.161 10.161h60.965c5.612 0 10.161-4.549 10.161-10.161s-4.549-10.161-10.161-10.161h-20.322V254.021h20.322c5.612 0 10.161-4.549 10.161-10.161s-4.549-10.161-10.161-10.161h-60.965c-5.612 0-10.161 4.549-10.161 10.161s4.549 10.161 10.161 10.161h20.322v101.608z" clip-rule="evenodd" fill="#000000" opacity="1" data-original="#000000" class=""></path><path d="M10.134 447.076c0 22.447 18.197 40.643 40.643 40.643a40.186 40.186 0 0 0 14.855-2.906c24.02 18.391 57.917 27.983 99.576 27.983 6.279 0 12.803-.295 19.417-.721 29.507 60.294 72.081 97.574 120.172 97.574s90.665-37.28 120.182-97.544c6.625.427 13.138.721 19.417.721 41.659 0 75.556-9.592 99.576-27.983a40.2 40.2 0 0 0 14.845 2.876c17.939-.051 33.723-11.857 38.839-29.052 5.116-17.194-1.645-35.709-16.638-45.559 1.422-32.718-11.228-69.846-36.975-108.284 25.747-38.428 38.398-75.556 36.975-108.284 17.566-11.336 23.635-34.169 14.016-52.731s-31.774-26.769-51.164-18.954c-27.607-21.124-68.372-30.482-118.882-27.19C395.504 37.321 352.91 0 304.798 0s-90.706 37.321-120.223 97.666c-50.489-3.272-91.234 6.096-118.882 27.19-19.378-7.752-41.476.467-51.079 18.998s-3.576 41.325 13.931 52.687c-1.402 32.708 11.258 69.835 37.006 108.284-25.748 38.438-38.408 75.566-36.975 108.284a40.573 40.573 0 0 0-18.442 33.967zm20.322 0c0-11.223 9.098-20.322 20.322-20.322S71.1 435.852 71.1 447.076s-9.098 20.322-20.322 20.322a20.322 20.322 0 0 1-20.322-20.322zm166.729-327.991a401.786 401.786 0 0 1 79.539 17.853 584.292 584.292 0 0 0-53.212 27.089 565.622 565.622 0 0 0-50.276 32.687 399.925 399.925 0 0 1 23.949-77.629zm239.165 77.629a564.361 564.361 0 0 0-50.266-32.687 590.215 590.215 0 0 0-53.121-27.089 401.66 401.66 0 0 1 79.458-17.853 399.888 399.888 0 0 1 23.929 77.629zm-23.939 293.851a401.786 401.786 0 0 1-79.539-17.853 584.292 584.292 0 0 0 53.212-27.089 565.622 565.622 0 0 0 50.276-32.687 399.877 399.877 0 0 1-23.949 77.629zm-36.487-308.93a535.527 535.527 0 0 1 65.537 44.474 552.429 552.429 0 0 1 5.588 78.716 552.565 552.565 0 0 1-5.578 78.716 535.905 535.905 0 0 1-65.547 44.474 546.06 546.06 0 0 1-71.126 34.526 545.55 545.55 0 0 1-71.126-34.547 535.527 535.527 0 0 1-65.537-44.474 558.154 558.154 0 0 1 0-157.432 535.945 535.945 0 0 1 65.537-44.454 546.05 546.05 0 0 1 71.187-34.547 545.758 545.758 0 0 1 71.065 34.548zm88.399 63.678a402.842 402.842 0 0 1 54.94 59.512 402.92 402.92 0 0 1-54.868 59.512 589.324 589.324 0 0 0 2.977-59.512 589.052 589.052 0 0 0-2.997-59.512zm-319.05 119.024a401.8 401.8 0 0 1-54.94-59.512 402.865 402.865 0 0 1 54.868-59.512 592.222 592.222 0 0 0 0 119.024zm78.299 81.286a590.215 590.215 0 0 0 53.121 27.089 401.66 401.66 0 0 1-79.458 17.853 399.917 399.917 0 0 1-23.939-77.629 564.514 564.514 0 0 0 50.215 32.687zm81.226 143.705c-38.164 0-72.843-30.269-98.418-79.366a446.745 446.745 0 0 0 98.418-25.646 446.445 446.445 0 0 0 98.458 25.646c-25.625 49.097-60.294 79.366-98.458 79.366zm254.021-121.93c-11.223 0-20.322-9.098-20.322-20.322s9.098-20.322 20.322-20.322 20.322 9.098 20.322 20.322-9.099 20.322-20.322 20.322zm2.133-60.752c-.721 0-1.402-.213-2.134-.213-22.447 0-40.643 18.197-40.643 40.643a40.24 40.24 0 0 0 8.83 24.985c-22.13 14.601-54.432 21.541-93.124 20.088a441.274 441.274 0 0 0 26.611-97.808 444.227 444.227 0 0 0 70.892-71.796 170.13 170.13 0 0 1 29.568 84.101zm18.188-244.073c0 11.223-9.098 20.322-20.322 20.322s-20.322-9.098-20.322-20.322 9.098-20.322 20.322-20.322 20.322 9.099 20.322 20.322zm-52.135-24.985a40.253 40.253 0 0 0-8.83 24.985c0 22.447 18.197 40.643 40.643 40.643.732 0 1.412-.173 2.134-.213a170.072 170.072 0 0 1-29.568 84.101 444.249 444.249 0 0 0-70.902-71.796A440.96 440.96 0 0 0 433.84 117.5c38.724-1.463 71.045 5.446 93.165 20.088zM304.798 20.322c38.164 0 72.843 30.269 98.418 79.366a446.7 446.7 0 0 0-98.367 25.646 446.445 446.445 0 0 0-98.458-25.646c25.574-49.097 60.243-79.366 98.407-79.366zM50.777 142.252c11.223 0 20.322 9.098 20.322 20.322s-9.098 20.322-20.322 20.322-20.322-9.098-20.322-20.322 9.099-20.322 20.322-20.322zm-2.133 60.751c.721 0 1.402.213 2.134.213 22.447 0 40.643-18.197 40.643-40.643a40.239 40.239 0 0 0-8.83-24.985c22.12-14.601 54.421-21.531 93.124-20.088a441.328 441.328 0 0 0-26.611 97.808 444.573 444.573 0 0 0-70.892 71.786 169.958 169.958 0 0 1-29.568-84.091zm29.568 119.552a445.105 445.105 0 0 0 70.912 71.786 441.252 441.252 0 0 0 26.632 97.818c-38.672 1.463-70.994-5.497-93.124-20.098a40.245 40.245 0 0 0 8.789-24.985c0-22.447-18.197-40.643-40.643-40.643-.732 0-1.412.183-2.134.213a170.036 170.036 0 0 1 29.568-84.091z" fill="#000000" opacity="1" data-original="#000000" class=""></path></g></svg>
