<svg id="Layer_1" data-name="Layer 1" xmlns="http://www.w3.org/2000/svg" viewBox="0 0 27.84 24.93"><defs><style>.cls-1{fill:#010101;}</style></defs><path class="cls-1" d="M15,12.55A2.42,2.42,0,1,1,12.58,15,2.42,2.42,0,0,1,15,12.55h0M9,25.36c.81.49,2.59-.26,4.66-2.21a29.25,29.25,0,0,1-1.95-2.46,29.21,29.21,0,0,1-3.11-.51C8,23,8.19,24.85,9,25.36m.92-7.44-.38-.66a11.11,11.11,0,0,0-.37,1.11c.35.08.74.15,1.14.21l-.39-.66m8.47-1,1.05-2L18.4,13.05c-.39-.69-.8-1.29-1.18-1.9-.7,0-1.44,0-2.21,0H12.79c-.37.61-.79,1.22-1.18,1.9l-1,2,1,2c.39.68.81,1.29,1.18,1.9h4.43c.38-.61.79-1.22,1.18-1.9M15,8.23c-.25.29-.51.58-.77.93h1.53c-.26-.35-.52-.64-.76-.93m0,13.53c.24-.29.5-.59.76-.94H14.24c.26.35.52.65.77.94M21,4.63c-.8-.49-2.59.26-4.65,2.2.69.79,1.35,1.61,2,2.46a29.93,29.93,0,0,1,3.11.47c.66-2.77.41-4.68-.42-5.18M20.08,12l.38.66a10.36,10.36,0,0,0,.38-1.11c-.35-.08-.74-.14-1.14-.21l.38.66M22,3c1.91,1.08,2.11,4,1.3,7.29,3.29,1,5.66,2.59,5.66,4.77s-2.37,3.79-5.66,4.76c.8,3.35.59,6.21-1.3,7.3s-4.47-.16-7-2.53c-2.49,2.37-5.07,3.61-7,2.53s-2.1-3.89-1.3-7.3c-3.29-1-5.66-2.59-5.66-4.76s2.37-3.81,5.66-4.78C5.94,6.88,6.15,4,8,2.93s4.48.16,7,2.53c2.48-2.37,5.06-3.61,7-2.53M21.59,15a31,31,0,0,1,1.19,2.93C25.5,17.11,27,15.94,27,15s-1.57-2.11-4.25-2.92A30.79,30.79,0,0,1,21.59,15M8.43,15a30.87,30.87,0,0,1-1.2-2.92C4.51,12.88,3,14.05,3,15s1.56,2.12,4.24,2.93A31,31,0,0,1,8.43,15m11.65,2.93-.38.66a5.12,5.12,0,0,0,1.14-.21,11.18,11.18,0,0,0-.38-1.11l-.38.66M16.3,23.15c2.06,2,3.89,2.7,4.65,2.21S22,23,21.37,20.18a29.9,29.9,0,0,1-3.11.46,29.67,29.67,0,0,1-2,2.51M9.93,12.07l.39-.66a5.12,5.12,0,0,0-1.14.2,11.29,11.29,0,0,0,.37,1.12l.38-.66m3.78-5.24C11.61,4.89,9.82,4.14,9,4.63S8,7,8.61,9.81a29.12,29.12,0,0,1,3.11-.46A30.17,30.17,0,0,1,13.71,6.83Z" transform="translate(-1.08 -2.54)"/></svg>