<svg id="Layer_1" data-name="Layer 1" xmlns="http://www.w3.org/2000/svg" viewBox="0 0 30 30"><path d="M3.1,25.67c.17-1.38.34-2.68.51-4,.52-4,1.06-8,1.56-11.93a1,1,0,0,1,.87-1,3.46,3.46,0,0,0,3.2-3A6.34,6.34,0,0,1,11.68,2.3a2.91,2.91,0,0,1,3.87-.19s.09.08.14.08c1.71.06,2.33,1.33,2.9,2.65l.87-.16-1,23.86ZM14.76,14.05l1-2.9a6.06,6.06,0,0,0-5.66.58c-1.91,1.33-3.13,5.07-.28,7a3,3,0,0,1,1,1.09,1.53,1.53,0,0,1,0,1.32,1.41,1.41,0,0,1-1.23.39,14.53,14.53,0,0,1-2.22-.95c-.19.61-.42,1.24-.57,1.88a.87.87,0,0,0,.25.68A5.05,5.05,0,0,0,12,24.32c2.86-.83,3.68-4.77,1.45-6.91a20.39,20.39,0,0,0-1.71-1.36,1.22,1.22,0,0,1,.8-2.29C13.21,13.81,13.92,13.94,14.76,14.05Zm-.3-11.53C12.53,1.62,10,5.06,9.7,7.64a13.88,13.88,0,0,0,1.54-.5,1.12,1.12,0,0,0,.58-.63A6,6,0,0,1,14.46,2.52Zm-1.7,4.15c.86-.26,1.56-.44,2.23-.69.2-.07.48-.33.47-.5,0-.7-.13-1.4-.23-2.24A5,5,0,0,0,12.76,6.67Zm5-1.54c-.34-.83-.59-1.64-1.57-2l.32,2.4Z"/><path d="M19.84,4.69a2,2,0,0,1,.31.26A3.55,3.55,0,0,0,23.48,6.5c.16,0,.49.31.52.5.62,4,1.2,8,1.79,12,.36,2.39.71,4.79,1.07,7.18,0,.18,0,.36,0,.6l-8.08,1.76Z"/></svg>