<svg id="Layer_1" data-name="Layer 1" xmlns="http://www.w3.org/2000/svg" viewBox="0 0 30 30"><path d="M28.84,26.37l-.33,1-.45-.55a4.11,4.11,0,0,0-5.56-1.2,13.14,13.14,0,0,1-4.73,1.72,16.71,16.71,0,0,1-8.91-1.57,19,19,0,0,1-7.48-6.42c-.06-.09-.12-.17-.17-.26a1,1,0,0,1-.05-.22c5,3,10,4.41,15.54,1.69C11.67,16.66,8,11.67,4.05,6.82a119.9,119.9,0,0,0,10.33,7.7c-1.24-1.57-2.45-3-3.61-4.57S8.52,6.87,7.44,5.29a147.14,147.14,0,0,0,13.15,10.6C22.16,11,21,6.73,18.47,2.56c.77.62,1.58,1.2,2.32,1.86a17.14,17.14,0,0,1,5.87,9,12,12,0,0,1-.1,6.24.82.82,0,0,0,.06.62A11.74,11.74,0,0,1,28.84,25Z"/></svg>