<svg id="Layer_1" data-name="Layer 1" xmlns="http://www.w3.org/2000/svg" viewBox="0 0 30 30"><defs><style>.cls-1{fill:#010101;}</style></defs><path class="cls-1" d="M22.54,8.11a7.54,7.54,0,1,0-8,7.52C13.9,22.32,10,29.43,10,29.43h3.8A17.15,17.15,0,0,0,14.84,24h.32a17.15,17.15,0,0,0,1.06,5.46H20s-3.92-7.11-4.58-13.8A7.53,7.53,0,0,0,22.54,8.11ZM21,8.33a1.75,1.75,0,0,1-1.1,1,2,2,0,0,1,1.29-2.43A1.76,1.76,0,0,1,21,8.33Zm-.6-3.44a1.79,1.79,0,0,1,.3,1.44A1.76,1.76,0,0,1,20,7.61,2,2,0,0,1,20.38,4.89ZM21.26,9a1.74,1.74,0,0,1-.65,1.32,1.73,1.73,0,0,1-1.36.56A2,2,0,0,1,21.26,9ZM12.52,10.1h.81a1.49,1.49,0,0,0,.54-.06.33.33,0,0,0,.18-.17,1.37,1.37,0,0,0,.06-.51V4.93H12.52V3.83a9.47,9.47,0,0,0,1-.14,10,10,0,0,0,1.16-.3,4,4,0,0,0,.64-.24h.55V9.36a2,2,0,0,0,0,.48.37.37,0,0,0,.19.2,1.25,1.25,0,0,0,.48.06h.79v1.1H12.52V10.1ZM9.62,4.89a2,2,0,0,1,.43,2.72,1.72,1.72,0,0,1-.72-1.28A1.75,1.75,0,0,1,9.62,4.89Zm-.78,2a2,2,0,0,1,1.29,2.43,1.7,1.7,0,0,1-1.1-1A1.69,1.69,0,0,1,8.84,6.88Zm1.91,4a1.7,1.7,0,0,1-1.35-.56A1.72,1.72,0,0,1,8.74,9,2,2,0,0,1,10.75,10.89Zm-1.4.18a2,2,0,0,1,2.51,1.12,1.76,1.76,0,0,1-1.47-.09A1.74,1.74,0,0,1,9.35,11.07Zm2.56,2.37a1.76,1.76,0,0,1-1.32-.63,2,2,0,0,1,2.74.24A1.76,1.76,0,0,1,11.91,13.44ZM15.66,15a.86.86,0,0,1-.56-.48,1.19,1.19,0,0,1-.1-.28,1.19,1.19,0,0,1-.1.28.89.89,0,0,1-.56.48A1,1,0,0,1,15,13.81,1,1,0,0,1,15.66,15Zm.55-.8A1.75,1.75,0,0,1,15,13.39a1.75,1.75,0,0,1-1.21.83,1.74,1.74,0,0,1-1.46-.17A2,2,0,0,1,15,13.39a2,2,0,0,1,2.67.66A1.74,1.74,0,0,1,16.21,14.22Zm1.88-.78a1.76,1.76,0,0,1-1.42-.39,2,2,0,0,1,2.74-.24A1.76,1.76,0,0,1,18.09,13.44Zm1.52-1.34a1.76,1.76,0,0,1-1.47.09,2,2,0,0,1,2.52-1.12A1.75,1.75,0,0,1,19.61,12.1Z"/></svg>